<?xml version="1.0" encoding="UTF-8"?>
<svg id="Layer_1" xmlns="http://www.w3.org/2000/svg" xmlns:v="https://vecta.io/nano" version="1.1" viewBox="0 0 33 34">
  <!-- Generator: Adobe Illustrator 29.1.0, SVG Export Plug-In . SVG Version: 2.1.0 Build 142)  -->
  <defs>
    <style>
      .st0 {
        fill: #0d8cb1;
      }

      .st1 {
        fill: #fff;
      }
    </style>
  </defs>
  <circle class="st0" cx="16.5" cy="17" r="16.4"/>
  <path class="st0" d="M19.7,23.2v1.1-2.2,1.1Z"/>
  <g>
    <path class="st1" d="M19.6,6.4s0,.7,0,.8,0,.2,0,.2.3.2.4.3c.6.3,1.3.6,1.9,1,2.1,1.1,5.1,3.6,5.2,6.1s0,.7,0,1v3.9c-.8.3-1.5.4-2.2.5-1.1.2-2.2.2-3.3.1v-5.9c0-.2.1-.6.2-.8.4-1.1,1.2-1.9,1.9-2.8-.6-.6-1.3-1-2.1-1.4s-1-.6-1.5-.8-.7-.3-.7-.2l-.8,9.6c-.3,0-.5,0-.8,0s-.1,0-.2,0c-1.1,0-2.2,0-3.3,0l-.8-9.7c-.8.3-1.5.7-2.2,1.1s-1.4.9-2,1.4c.8,1.1,2,2.3,2.1,3.7s0,3.3,0,4.8,0,.2,0,.2c0,.3,0,.5,0,.8-.5,0-1,0-1.5,0s-1.1,0-1.7-.1c-.8,0-1.6-.3-2.3-.6,0-.3,0-.5,0-.8,0-1.3,0-2.8,0-4.1s1.5-3.4,2.7-4.4,3.2-2.2,4.9-2.9v-1.1c0,0,6.1,0,6.1,0ZM18.8,7.1h-4.5l.8,10.1h2.9l.8-10.1ZM26.3,19.1c0-.1,0-.3,0-.4,0-1.2.1-2.8,0-4s-.8-2-1.4-2.7-.6-.7-.7-.7c-.6.8-1.3,1.5-1.7,2.4s-.3,3.2-.3,4.5,0,.9,0,1.4c0,0,.2,0,.2,0,.9,0,2,0,2.8-.2s.7-.2,1-.3ZM10.7,19.6v-3.6c0-1.5,0-2.1-.9-3.3s-1-1.4-1.2-1.4c-.6.6-1.2,1.3-1.6,2.1s-.4,1-.4,1.7c0,1.1,0,2.2,0,3.3s0,.4,0,.6c1.3.3,2.7.5,4,.5Z"/>
    <path class="st1" d="M28.1,22.3c-.8.4-1.6.6-2.5.8-1.3.3-2.7.6-4,.8-5.6.9-11.4.3-16.8-1.5-.2-.1.1-.5.2-.6.2-.4.3-.8.5-1.2h0c.8,0,1.5.2,2.3.3,6.4.8,13,.6,19.4-.3h.1s.7,1.7.7,1.7ZM27,21.5c0,0-.1,0-.2,0-2.2.1-4.4.5-6.6.6-3.6.2-7.4,0-11-.3-1.1-.1-2.1-.3-3.2-.3v.4c.7.3,1.5.5,2.3.7,5.3,1.2,10,1.2,15.4.2,1.1-.2,2.3-.5,3.4-.9v-.5Z"/>
    <path class="st1" d="M16.7,8.7v.4c.5,0,.7.5.6,1h-.4c0-.3,0-.6-.5-.6s-.4.4-.3.7c0,.5,1.1.4,1.2,1.1s0,1.3-.6,1.4v.4h-.4v-.4c-.5-.1-.7-.5-.6-1h.4c0,.3,0,.6.4.6s.4-.2.4-.4c0-.9-.5-.7-1-1.1s-.3-.7-.3-1,.3-.6.6-.6v-.4h.4Z"/>
  </g>
</svg>