<?xml version="1.0" encoding="UTF-8"?>
<svg id="Layer_1" xmlns="http://www.w3.org/2000/svg" version="1.1" viewBox="0 0 152 34">
  <!-- Generator: Adobe Illustrator 29.1.0, SVG Export Plug-In . SVG Version: 2.1.0 Build 142)  -->
  <defs>
    <style>
      .st0 {
        fill: #0d8cb1;
      }
    </style>
  </defs>
  <g>
    <path class="st0" d="M97.3,22.9c0,.5-.5.6-1,.6-.9,0-2.5,0-3.3,0s-.7-.3-.7-.8V5c0-.4,0-.7.5-.8,3.3.2,6.9-.5,10.1.3,3.4.8,5.4,4.3,4.5,7.7s-1.6,2.6-2.9,3.7h0c.8,2.1,2,3.8,2.9,5.7s.9,1.5.6,1.8c-.1,0-.3,0-.4.1-.3,0-.6,0-.9,0-1.3,0-2.8,0-4.1-.1-1.2-2.1-2.1-4.3-3.4-6.3h-2v5.8ZM97.3,12.9c1.2,0,2.7.2,3.9-.3s1.6-2.3.9-3.4-3.4-1.1-4.8-1.1v4.8Z"/>
    <path class="st0" d="M33.4,1.1c0,0,0,1.2-.1,1.4s0,.3,0,.4.6.4.8.5c1.1.6,2.3,1.1,3.4,1.7,3.8,2,9,6.3,9.3,10.9s0,1.2,0,1.8v6.9c-1.3.5-2.6.8-4,1-1.9.3-4,.4-5.9.2v-10.5c0-.3.3-1.1.4-1.4.7-1.9,2.2-3.4,3.4-5-1-1-2.4-1.8-3.7-2.5s-1.8-1-2.7-1.4-1.2-.5-1.3-.4l-1.3,17c-.5.1-1,0-1.5.1s-.2,0-.4,0c-2,0-3.9,0-5.9,0l-1.4-17.2c-1.4.5-2.7,1.2-4,1.9s-2.5,1.5-3.6,2.5c1.4,1.9,3.6,4.1,3.8,6.6s0,5.8,0,8.6,0,.3,0,.4c0,.5,0,.9,0,1.4-.9,0-1.8,0-2.7,0s-2,0-3-.2c-1.4-.2-2.8-.4-4.1-1-.1-.5,0-1-.1-1.4-.1-2.3-.1-5,0-7.3s2.7-6,4.8-7.8,5.6-4,8.7-5.1v-2c-.1,0,10.8,0,10.8,0ZM31.9,2.4h-8l1.4,18h5.2l1.5-18ZM45.4,23.7c0-.3,0-.5,0-.8.1-2.1.2-5,0-7.1s-1.4-3.6-2.4-4.8-1.1-1.2-1.3-1.2c-1,1.3-2.3,2.6-3,4.2s-.5,5.6-.5,8,0,1.6,0,2.4c0,0,.3,0,.3,0,1.6.1,3.5-.1,5-.4s1.2-.3,1.8-.5ZM17.6,24.6v-6.3c0-2.6-.1-3.7-1.5-5.9s-1.7-2.5-2.1-2.4c-1.1,1-2.2,2.4-2.9,3.7s-.6,1.8-.7,3.1c0,2,0,3.9,0,5.9s0,.8,0,1.2c2.4.5,4.8.9,7.2.8Z"/>
    <path class="st0" d="M77.9,16.3c0,0,0,0,.1-.1.2-.4.4-.9.5-1.3,1.1-3,1.8-6.2,3-9.2s.5-1.2.5-1.3.3,0,.4,0c1.1-.1,3-.2,4.1,0s.8.6.5,1.2-.4,1-.6,1.4c-2.1,5.3-4.1,10.6-6.1,15.9-.1.2-.3.5-.5.6-.5.2-2.2.2-2.9.2s-1,0-1.4-.5c-2.3-6.1-4.8-12.2-7-18.4,0-.4.6-.4.8-.4.9,0,2.4-.1,3.3,0s1,.2,1.3.8.3.8.4,1.1c1.2,3.4,2.1,6.9,3.5,10.3Z"/>
    <path class="st0" d="M62.2,9.6c-.5.4-.8-.1-1.2-.4-2.1-1.2-5-.5-6.3,1.5-2.6,4,.7,9.5,5.4,7.9s1.3-.7,1.9-.8.4.2.6.4c.5.6,1.6,2.1,1.9,2.8s.2.8-.2,1.1c-1.9,1.6-5.8,1.9-8.1,1.3-9.5-2.3-9.9-16.2-.4-19.1,2.5-.8,6.5-.5,8.6,1.2s.4.5.2,1-1.8,2.7-2.2,3.1Z"/>
    <path class="st0" d="M48.6,29.4c-1.4.7-2.9,1-4.4,1.4-2.3.6-4.7,1.1-7.1,1.4-10,1.5-20.3.5-29.9-2.7-.3-.2.2-.8.3-1,.3-.7.5-1.5.9-2.1h0c1.4.2,2.7.4,4.1.5,11.4,1.4,23.1,1,34.5-.6h.2s1.3,3.1,1.3,3.1ZM46.5,27.9c-.1,0-.3,0-.4,0-3.9.2-7.8.9-11.8,1.1-6.4.3-13.2.2-19.6-.5s-3.7-.6-5.6-.6l-.2.7c1.4.6,2.9.9,4.3,1.3,9.5,2.2,17.8,2.2,27.4.4,2-.4,4.1-.8,6-1.6l-.2-.8Z"/>
    <path class="st0" d="M28.3,5.1v.7c.9.2,1.2.9,1.1,1.7h-.8c0-.6-.1-1.1-.8-1s-.7.8-.6,1.3c.1.9,1.9.7,2.2,1.9s.1,2.4-1.1,2.5v.8h-.8v-.7c-.9-.2-1.2-.9-1.1-1.8h.8c0,.6,0,1,.7,1.1s.7-.3.8-.8c.1-1.5-.9-1.2-1.8-1.9s-.6-1.2-.5-1.9.5-1,1.1-1.1v-.7h.8Z"/>
  </g>
  <g>
    <path class="st0" d="M53.8,27.8c0,.5-.4,1.1-1.3,1.1s-1.4-.7-1.4-1.6.5-1.6,1.4-1.6,1.2.5,1.2,1h-.6c0-.3-.2-.5-.6-.5s-.7.5-.7,1.1.2,1.1.7,1.1.6-.3.6-.5h.6Z"/>
    <path class="st0" d="M54.9,28l-.2.8h-.6c0-.1.9-3,1-3.2h.8l1,3.2h-.7l-.2-.8h-1.1ZM55.8,27.5c-.2-.6-.3-1.1-.4-1.4h0c0,.4-.2.9-.4,1.4h.8Z"/>
    <path class="st0" d="M57.7,27.9c0,.3.2.5.6.5s.5-.2.5-.4-.2-.4-.6-.5c-.7-.2-1-.5-1-.9s.5-.9,1.1-.9,1.1.4,1.1.9h-.6c0-.2-.2-.4-.5-.4s-.4.1-.4.4.2.3.6.4c.8.2,1,.6,1,1s-.3,1-1.2,1-1.1-.4-1.2-1h.6Z"/>
    <path class="st0" d="M62,27.4h-1.4v.9h1.5v.5h-2.2v-3.2h2.1v.5h-1.4v.7h1.4v.5Z"/>
    <path class="st0" d="M64.4,28.8l-1-3.2h.7l.4,1.4c.1.4.2.8.3,1.1h0c0-.3.2-.7.3-1.1l.4-1.5h.7l-1.1,3.2h-.8Z"/>
    <path class="st0" d="M66.9,28l-.2.8h-.6c0-.1.9-3,1-3.2h.8l1,3.2h-.7l-.2-.8h-1.1ZM67.8,27.5c-.2-.6-.3-1.1-.4-1.4h0c0,.4-.2.9-.4,1.4h.8Z"/>
    <path class="st0" d="M69.3,25.6h.7v2.7h1.4v.5h-2.1v-3.2Z"/>
    <path class="st0" d="M72.3,25.6v2c0,.4,0,.7.6.7s.6-.3.6-.7v-2h.7v2c0,.7-.3,1.2-1.2,1.2s-1.2-.5-1.2-1.2v-2h.7Z"/>
    <path class="st0" d="M75.3,28l-.2.8h-.6c0-.1.9-3,1-3.2h.8l1,3.2h-.7l-.2-.8h-1.1ZM76.2,27.5c-.2-.6-.3-1.1-.4-1.4h0c0,.4-.2.9-.4,1.4h.8Z"/>
    <path class="st0" d="M77.9,26.1h-.9v-.5h2.4v.5h-.9v2.7h-.7v-2.7Z"/>
    <path class="st0" d="M80.5,25.6v3.2h-.7v-3.2h.7Z"/>
    <path class="st0" d="M83.9,27.2c0,.9-.4,1.7-1.4,1.7s-1.4-.8-1.4-1.7.4-1.6,1.4-1.6,1.4.8,1.4,1.6ZM81.7,27.2c0,.6.3,1.1.8,1.1s.8-.5.8-1.1-.2-1.1-.8-1.1-.7.5-.7,1.1Z"/>
    <path class="st0" d="M84.5,28.8v-3.2h.8c.9,1.9,1.1,2.3,1.1,2.4h0c0-.4,0-.9,0-1.4v-1h.6v3.2h-.8c-1-2.1-1.1-2.4-1.2-2.5h0c0,.4,0,1,0,1.5v1h-.6Z"/>
    <path class="st0" d="M89.5,27.5v1.3h-.6v-3.2h1.3c.6,0,1,.3,1,.9s-.2.6-.5.7c.3.1.4.4.4.8h0c0,.4,0,.6,0,.8h-.6c0-.1,0-.3,0-.7h0c0-.4-.1-.6-.5-.6h-.4ZM89.5,27h.5c.3,0,.6,0,.6-.4s-.2-.4-.5-.4h-.6v.8Z"/>
    <path class="st0" d="M93.7,27.4h-1.4v.9h1.5v.5h-2.2v-3.2h2.1v.5h-1.4v.7h1.4v.5Z"/>
    <path class="st0" d="M95,27.5v1.3h-.6v-3.2h1.3c.6,0,1,.3,1,.9s-.2.6-.5.7c.3.1.4.4.4.8h0c0,.4,0,.6,0,.8h-.6c0-.1,0-.3,0-.7h0c0-.4-.1-.6-.5-.6h-.4ZM95,27h.5c.3,0,.6,0,.6-.4s-.2-.4-.5-.4h-.6v.8Z"/>
    <path class="st0" d="M97.2,25.6h1.2c.6,0,1.1.3,1.1,1s-.5,1-1.2,1h-.5v1.2h-.7v-3.2ZM97.9,27.1h.4c.3,0,.6-.1.6-.5s-.2-.5-.5-.5h-.4v.9Z"/>
    <path class="st0" d="M102.8,27.2c0,.9-.4,1.7-1.4,1.7s-1.4-.8-1.4-1.7.4-1.6,1.4-1.6,1.4.8,1.4,1.6ZM100.6,27.2c0,.6.3,1.1.8,1.1s.8-.5.8-1.1-.2-1.1-.8-1.1-.7.5-.7,1.1Z"/>
    <path class="st0" d="M104,27.5v1.3h-.6v-3.2h1.3c.6,0,1,.3,1,.9s-.2.6-.5.7c.3.1.4.4.4.8h0c0,.4,0,.6,0,.8h-.6c0-.1,0-.3,0-.7h0c0-.4-.1-.6-.5-.6h-.4ZM104,27h.5c.3,0,.6,0,.6-.4s-.2-.4-.5-.4h-.6v.8Z"/>
    <path class="st0" d="M106.8,26.1h-.9v-.5h2.4v.5h-.9v2.7h-.7v-2.7Z"/>
  </g>
</svg>